<svg xmlns="http://www.w3.org/2000/svg" viewBox="0 0 512 512">
  <path fill="#9a9996" d="M97.871 158.79v46.328h316.26V158.79H97.871zm118.6 260.36v10.039h79.066V419.15h-79.066z"/>
  <path d="M175.46 5.45 131.435 30v279.18s27.589 21.487 44.025 25.975c51.8 14.142 109.29 14.142 161.09 0 16.437-4.487 44.025-25.975 44.025-25.975V30L336.55 5.45H175.46zM83.442 144.4s-51.546 190.92-8.656 259.9c10.798 17.368 52.086 14.841 52.086 14.841h258.26s41.288 2.527 52.086-14.842c42.89-68.989-8.656-259.9-8.656-259.9h-43.43v183.33l-64.566 37.105h-129.13L126.87 327.73V144.4H83.44zm39.756 284.94-21.619 15.44v46.328l21.619 15.441h262.52l24.709-15.44V444.78l-24.709-15.44h-262.52z" />
</svg>