<svg xmlns="http://www.w3.org/2000/svg" viewBox="0 0 512 512">
  <path fill="#FFF" d="M139.29 130.28c-.798.362-1.382 1.135-1.744 2.161-.56 1.59-.14 3.228.285 4.543.428 1.31.956 2.328.956 2.328.01.015.018.03.027.046l74.375 127.82-119.52 104.31 324.67.004-119.51-104.31 74.371-127.83.02-.048s.535-1.014.963-2.326c.428-1.315.846-2.95.285-4.543-.362-1.026-.956-1.804-1.752-2.161a2.868 2.868 0 0 0-2.217 0 5.45 5.45 0 0 0-1.975 1.355l.085-.087L256 229.816l-112.6-98.274.084.087s-.77-.894-1.975-1.355a2.868 2.868 0 0 0-2.217 0zm.973 2.161c.056-.029.16-.037.399.052.473.187 1.09.76 1.09.76l.086.084 112.36 98.05-39.187 34.2-74.115-127.38s-.451-.855-.806-1.96c-.356-1.102-.522-2.418-.31-3.02.229-.65.428-.763.484-.788zm231.47 0c.056.023.255.142.478.79.214.603.054 1.916-.304 3.018-.345 1.078-.758 1.874-.777 1.912L296.988 265.6 257.8 231.39l112.36-98.05c.032-.024.064-.05.093-.078 0 0 .613-.58 1.094-.761.236-.094.332-.083.388-.056zm-115.75 100.52 39.77 34.704-39.77 68.361-39.781-68.36zm-158.73 138.52 117.13-102.22 40.226 69.125-19.261 33.095m41.267 0-19.261-33.09 40.226-69.13 117.13 102.22m-176.62 0 17.889-30.742 17.879 30.741"/>
</svg>