<svg xmlns="http://www.w3.org/2000/svg" viewBox="0 0 512 512">
  <path d="M19.992 61.837c-.136.09-.252.205-.34.34a1.189 1.189 0 0 0-.495-.007c-.223.224-.346.529-.343.845l-.009.009v301.67c0 1.064 1.283 1.59 2.033.835l36.319-36.522h.066l36.32 36.522c.745.758 2.035.228 2.032-.835v-262.69h45.833v25.547l-6.78-3.371c-1.456-.836-2.6 1.466-1.053 2.122l15.761 7.853c1.44.784 2.551-1.441 1.06-2.122l-6.615-3.296v-26.73h73.2v25.822h-7.472c-1.582 0-1.582 2.374 0 2.374h7.776c.212.277.534.447.882.465.352-.014.68-.185.893-.465h8.864c1.582 0 1.582-2.374 0-2.374h-8.57v-25.826h73.245v25.826h-8.558c-1.582 0-1.582 2.374 0 2.374h8.853c.214.28.542.45.894.465.346-.018.667-.19.877-.465h7.78c1.583 0 1.583-2.374 0-2.374h-7.47v-25.826h73.199v26.734l-6.615 3.296c-1.305.742-.316 2.72 1.06 2.12l15.772-7.851c1.334-.734.329-2.75-1.06-2.126l-6.788 3.375V102.01h45.837V364.7c0 1.064 1.28 1.592 2.03.835l36.32-36.522h.077l36.319 36.522c.746.74 2.015.216 2.022-.835V63.003a.502.502 0 0 0-.038-.033 1.184 1.184 0 0 0-.314-.817 1.187 1.187 0 0 0-.827-.326l-.008-.009h-.008zm2.828 2.373h68.737L57.183 99.195zm72.754 0h320.81v35.427H95.574zm324.82 0h68.726l-34.363 34.985zm-399.22 1.704 33.118 33.723H21.174zm72.02 0v33.723H60.067zm325.55 0 33.125 33.723h-33.127zm72.02.009v33.713H457.65zM21.174 102.01h33.243l-33.243 33.85zm38.777 0h33.241v33.85zm358.8 0h33.243l-33.245 33.85zm38.788 0h33.231v33.835zm-400.35.57 34.374 34.988H22.816zm397.58 0 34.363 34.988h-68.735zM1.18 371.49c-.655 0-1.186.53-1.186 1.186v56.918c0 .656.532 1.188 1.186 1.188h87.1V449a1.185 1.185 0 0 0 1.187 1.187h333.05c.655 0 1.187-.531 1.187-1.187v-18.216h87.1c.656 0 1.188-.532 1.186-1.188v-56.916a1.187 1.187 0 0 0-1.184-1.185c-169.88 0-509.63-.004-509.63-.004zm21.632-231.54h68.745l-34.374 35.16zm397.58 0h68.745l-34.374 35.16zm-327.19 1.714v70.285l-34.353-35.145zm325.55 0 34.353 35.143-34.353 35.147zm-397.58.008 34.344 35.132-34.344 35.132zm469.59 0v70.264l-34.344-35.132zm-433.6 36.832 34.382 35.17H22.788zm397.58 0 34.382 35.17H420.36zM22.831 216.05h68.683L57.17 250.683zm397.58 0h68.69l-34.345 34.644zm-1.67 1.69 32.957 33.23h-32.96zm-397.58.007 32.947 33.224H21.16zm72.02 0v33.224H60.231zm397.58 0v33.224h-32.949zM21.17 253.345h33.375L21.17 287.008zm38.645 0h33.376v33.661zm358.93 0h33.38L418.75 287.01zm38.646 0h33.376v33.661zm-400.22.711 35.531 35.83-35.53 35.726-35.528-35.724zm397.58 0 35.521 35.83-35.52 35.726-35.522-35.724zm-36.017 38.692 33.698 33.896h-33.698zm-397.58.01 33.688 33.883H21.155zm72.02 0v33.883h-33.69zm397.58 0v33.883h-33.69zM21.165 329.02h32.628l-32.628 32.815zm39.39 0h32.628v32.815zm358.18 0h32.628l-32.628 32.825zm39.401 0h32.622v32.815zm-455.8 44.84h507.25v54.544H423.67V410.62a1.187 1.187 0 0 0-1.186-1.188H89.433a1.187 1.187 0 0 0-1.189 1.188v17.783H2.331zm88.286 37.947h330.66v36.005H90.622V429.59z"/>
</svg>