<svg xmlns="http://www.w3.org/2000/svg" viewBox="0 0 512 512">
  <defs>
    <linearGradient id="b" x1="-63.477" x2="-24.524" y1="-2.591" y2="-2.591" gradientTransform="translate(499.24 58.138) scale(2.2845)" gradientUnits="userSpaceOnUse">
      <stop offset="0" stop-opacity="0"/>
      <stop offset="1" stop-color="#2196f3"/>
    </linearGradient>
    <filter id="a" width="1.185" height="1.341" x="-.116" y="-.126" color-interpolation-filters="sRGB">
      <feFlood flood-opacity=".251" result="flood"/>
      <feComposite in="flood" in2="SourceGraphic" operator="in" result="composite1"/>
      <feGaussianBlur in="composite1" result="blur" stdDeviation="2"/>
      <feOffset dx="-3.5" dy="3.5" result="offset"/>
      <feComposite in="SourceGraphic" in2="offset" result="composite2"/>
    </filter>
  </defs>
  <path fill="#fff" d="m299 147.87 38.452 38.395v154.98c0 2.943-2.194 5.402-5.403 5.402h-144.67c-3.654 0-5.4-1.603-5.4-5.402v-188.01c0-2.761 1.606-5.404 5.4-5.402z" filter="url(#a)" transform="translate(-328.82 -328.82) scale(2.2845)"/>
  <path fill="#2196f3" d="M99.241 6.143a15.077 15.077 0 0 0-15.08 15.082v55.586h2.744V21.225A12.281 12.281 0 0 1 99.24 8.885h255.01a1.142 1.142 0 0 0-.012.09l6.008 71.562c.31 3.714 3.077 7.157 6.49 9.789 3.413 2.629 7.525 4.473 11.107 4.573l64.205 1.793a1.142 1.142 0 0 0 .032-.004v354.03a12.288 12.288 0 0 1-12.343 12.341H99.248a12.281 12.281 0 0 1-12.336-12.34v-283.24H84.17v283.24a15.077 15.077 0 0 0 15.08 15.08h330.49a15.077 15.077 0 0 0 15.082-15.08V95.548l-89.444-89.41zm257.53 5.753 82.469 82.437-61.338-1.718c-2.803-.08-6.67-1.71-9.773-4.1-3.102-2.393-5.387-5.516-5.61-8.168z"/>
  <path d="M151.25 215.43a.571.571 0 0 0-.164.164.571.571 0 0 0-.238-.004.571.571 0 0 0-.165.407l-.004.004v145.16c0 .512.617.765.978.402l17.476-17.574h.032l17.476 17.574a.571.571 0 0 0 .978-.402v-126.4h22.054v12.293l-3.262-1.622a.571.571 0 1 0-.507 1.021l7.584 3.779a.571.571 0 1 0 .51-1.021l-3.183-1.586v-12.862h35.222v12.425h-3.595a.571.571 0 0 0 0 1.142h3.742a.571.571 0 0 0 .424.224.571.571 0 0 0 .43-.224h4.265a.571.571 0 0 0 0-1.142h-4.124v-12.427h35.245v12.427h-4.118a.571.571 0 0 0 0 1.142h4.26a.571.571 0 0 0 .43.224.571.571 0 0 0 .422-.224h3.744a.571.571 0 0 0 0-1.142h-3.595v-12.427h35.222v12.864l-3.183 1.586a.571.571 0 0 0 .51 1.02l7.589-3.778a.572.572 0 0 0-.51-1.023l-3.266 1.624v-12.29h22.056v126.4c0 .512.616.766.977.402l17.476-17.574h.037l17.476 17.574a.571.571 0 0 0 .973-.402v-108.72a.507.507 0 0 0 0-.009v-36.444a.327.327 0 0 0-.018-.016.571.571 0 0 0-.151-.393.571.571 0 0 0-.398-.157l-.004-.004h-.004zm1.361 1.142h33.075l-16.54 16.834zm35.008 0h154.37v17.047h-154.37zm156.3 0h33.07l-16.535 16.834zm-192.1.82 15.936 16.227h-15.936zm34.655 0v16.227h-15.94zm156.65 0 15.939 16.227h-15.94zm34.655.004v16.222h-15.934zm-225.96 17.365h15.996l-15.996 16.288zm18.659 0h15.995v16.288zm172.65 0h15.996l-15.997 16.288zm18.664 0h15.99v16.281zm-192.64.274 16.54 16.836h-33.08zm191.31 0 16.535 16.836h-33.074zm-151.81 13.328c-.384.174-.665.546-.839 1.04-.27.765-.068 1.553.137 2.186.206.63.46 1.12.46 1.12a1.926 1.926 0 0 0 .013.022l35.788 61.507-57.511 50.19h-44.499a.571.571 0 0 0-.571.571v27.388c0 .316.256.572.571.572h41.911v8.765a.57.57 0 0 0 .571.571h160.26a.571.571 0 0 0 .571-.571v-8.765h41.911a.571.571 0 0 0 .571-.572V365a.571.571 0 0 0-.57-.57h-44.5l-57.507-50.19 35.786-61.508a.38.38 0 0 0 .01-.023s.257-.488.463-1.119c.206-.633.407-1.42.137-2.186-.174-.494-.46-.868-.843-1.04a1.38 1.38 0 0 0-1.067 0 2.623 2.623 0 0 0-.95.652l.041-.042-54.185 47.288-54.18-47.288.04.042s-.37-.43-.95-.652a1.38 1.38 0 0 0-1.067 0zm.468 1.04c.027-.014.077-.018.192.025.228.09.525.366.525.366l.041.04 54.064 47.18-18.856 16.457-35.663-61.292s-.217-.412-.388-.944c-.171-.53-.251-1.163-.149-1.453.11-.313.206-.367.233-.379zm111.38 0c.027.011.123.068.23.38.103.29.026.922-.146 1.452-.166.519-.365.902-.374.92l-35.676 61.32-18.856-16.461 54.064-47.18a.571.571 0 0 0 .045-.038s.295-.279.526-.366c.114-.045.16-.04.187-.027zm-167.89 3.614h33.079l-16.54 16.919zm191.31 0h33.079l-16.54 16.919zm-157.44.825v33.82l-16.53-16.911zm156.65 0 16.53 16.91-16.53 16.912zm-191.31.004 16.526 16.905-16.526 16.905zm225.96 0v33.81l-16.526-16.905zm-208.64 17.723 16.544 16.923H152.6zm191.31 0 16.544 16.923h-33.088zm-207.83 18.066h33.049L169.143 306.3zm191.31 0h33.052l-16.526 16.67zm-.804.813 15.859 15.99h-15.86zm-191.31.004 15.854 15.987h-15.854zm34.655 0v15.987h-15.854zm191.31 0v15.987h-15.854zm-112.98 7.322 19.137 16.699-19.137 32.894-19.142-32.894zm-112.98 9.807h16.06l-16.06 16.198zm18.596 0h16.06v16.197zm172.71 0h16.062l-16.06 16.199zm18.596 0h16.06v16.197zm-192.58.342 17.097 17.241-17.097 17.191-17.095-17.19zm191.31 0 17.092 17.241-17.092 17.191-17.092-17.19zm-115.67 7.318 19.356 33.262-9.268 15.925h-66.45zm40.033 0 56.362 49.187h-66.45l-9.268-15.923zm58.306 11.3 16.215 16.31h-16.215zm-191.31.005 16.21 16.304h-16.21zm34.655 0v16.304h-16.211zm191.31 0v16.304h-16.211zm-225.96 17.448h15.7l-15.7 15.79zm18.954 0h15.7v15.79zm172.35 0h15.7l-15.7 15.795zm18.959 0h15.697v15.79zm-97.282 5.642 8.603 14.792H256.19zm-122.04 15.934h244.08v26.246h-41.342v-8.557a.571.571 0 0 0-.571-.572h-160.26a.571.571 0 0 0-.572.572v8.557h-41.34zm42.482 18.26h159.11v17.325H185.24v-8.768z"/>
  <path fill="#2196f3" stroke="#2196f3" stroke-width=".438" d="M173.48 177.56h73.202v39.689H173.48z" filter="url(#a)" transform="translate(-328.82 -328.82) scale(2.2845)"/>
  <path fill="#fff" d="M101.37 105.67v33.447h2.284v-28.656l12.824 25.328 12.68-25.294v28.622h2.285V105.67h-2.421l-12.553 25.042-12.68-25.042zm40.058 0a1.142 1.142 0 0 0 .062.395l12.156 33.054h2.424l11.114-33.086a1.142 1.142 0 0 0 .054-.365h-2.346l-10.074 30.009-11.039-30.006zm36.519 0v33.447h2.284v-13.734h11.254l7.088 13.736h2.568l-7.084-13.736h.909c1.512 0 2.849-.811 3.85-1.873 1.002-1.06 1.726-2.426 1.726-3.904v-8.142c0-1.478-.72-2.842-1.722-3.909-.985-1.05-2.296-1.86-3.783-1.885zm2.284 2.28h14.736c.623 0 1.51.44 2.19 1.165.679.726 1.101 1.684 1.101 2.348v8.142c0 .663-.422 1.613-1.1 2.335-.681.72-1.568 1.16-2.194 1.16h-14.732z"/>
  <path fill="url(#b)" d="m355.37 8.885 6.008 71.559c.532 6.364 10.102 13.136 16.487 13.314l64.21 1.795z"/>
</svg>