<svg id="svg45" version="1.1" viewBox="0 0 512 512" xmlns="http://www.w3.org/2000/svg" xmlns:xlink="http://www.w3.org/1999/xlink">
 <g id="g43">
  <path id="svg_background" d="m362.69 9.0813 95.551 95.41v385.11c0 7.3132-5.452 13.424-13.426 13.424h-359.5c-9.08 0-13.419-3.9834-13.419-13.424v-467.19c0-6.861 3.9908-13.429 13.419-13.424z"/>
  <path id="svg_corner" d="m363.93 8.9819 6.5354 77.839c0.57899 6.9231 10.988 14.288 17.934 14.482l69.845 1.9532z"/>
  <path id="svg_boundary" d="m85.321 6a16.401 16.401 0 0 0-16.403 16.406v60.464h2.9844v-60.464a13.359 13.359 0 0 1 13.419-13.424h277.39a1.2425 1.2425 0 0 0-0.0124 0.0994l6.5354 77.841c0.33795 4.0405 3.3472 7.7854 7.0598 10.648 3.7125 2.8602 8.1854 4.8655 12.082 4.9749l69.84 1.9507a1.2425 1.2425 0 0 0 0.0348-5e-3v385.11c0 7.4598-5.9639 13.424-13.426 13.424h-359.5c-7.4623 0-13.419-5.9639-13.419-13.424v-308.1h-2.9844v308.1a16.401 16.401 0 0 0 16.403 16.403h359.5a16.401 16.401 0 0 0 16.406-16.403v-386.34l-97.293-97.256zm280.13 6.2571 89.707 89.672-66.721-1.8687c-3.049-0.08697-7.2561-1.8587-10.631-4.4605-3.3746-2.6017-5.8595-5.9987-6.103-8.8837z"/>
  <path id="svg_title" d="m50.775 82.87h181.9v98.625h-181.9z"/>
  <path id="svg_text" d="m87.637 114.26v36.382h2.485v-31.171l13.948 27.551 13.794-27.513v31.134h2.485v-36.382h-2.634l-13.655 27.24-13.791-27.24zm43.574 0a1.2425 1.2425 0 0 0 0.0671 0.42989l13.222 35.955h2.6365l12.089-35.99a1.2425 1.2425 0 0 0 0.0596-0.3976h-2.552l-10.959 32.642-12.007-32.64zm39.724 0v36.382h2.485v-14.94h12.241l7.7108 14.942h2.7931l-7.7058-14.942h0.98901c1.645 0 3.0987-0.88216 4.1872-2.0377 1.0909-1.153 1.8786-2.639 1.8786-4.2468v-8.8564c0-1.6078-0.78276-3.0913-1.8736-4.2518-1.071-1.1431-2.4974-2.0228-4.1151-2.0501zm2.485 2.48h16.028c0.67839 0 1.6426 0.4796 2.3831 1.2673 0.73803 0.79021 1.1978 1.8314 1.1978 2.5545v8.8564c0 0.72063-0.45972 1.7544-1.1978 2.5396-0.74051 0.78277-1.7047 1.2624-2.3856 1.2624h-16.025z"/>
  <path id="svg_structure" d="m141.89 233.65a0.62124 0.62124 0 0 0-0.17891 0.17892 0.62124 0.62124 0 0 0-0.25844-5e-3 0.62124 0.62124 0 0 0-0.17891 0.44232l-5e-3 5e-3v157.9c0 0.55663 0.67094 0.83246 1.0636 0.43735l19.01-19.117h0.0348l19.01 19.117a0.62124 0.62124 0 0 0 1.0636-0.43735v-137.5h23.99v13.372l-3.5485-1.7643a0.62124 0.62124 0 1 0-0.55166 1.1108l8.25 4.1101a0.62124 0.62124 0 1 0 0.55414-1.1108l-3.4615-1.7246v-13.99h38.313v13.516h-3.9113a0.62124 0.62124 0 0 0 0 1.2425h4.0704a0.62124 0.62124 0 0 0 0.4622 0.24353 0.62124 0.62124 0 0 0 0.46717-0.24353h4.6394a0.62124 0.62124 0 0 0 0-1.2425h-4.4853v-13.518h38.338v13.518h-4.4804a0.62124 0.62124 0 0 0 0 1.2425h4.6344a0.62124 0.62124 0 0 0 0.46717 0.24353 0.62124 0.62124 0 0 0 0.45972-0.24353h4.0728a0.62124 0.62124 0 0 0 0-1.2425h-3.9113v-13.518h38.313v13.993l-3.4615 1.7246a0.62124 0.62124 0 0 0 0.55415 1.1108l8.255-4.1101a0.62178 0.62178 0 0 0-0.55414-1.1133l-3.5535 1.7668v-13.369h23.992v137.49c0 0.55663 0.67094 0.83246 1.0636 0.43735l19.01-19.117h0.0397l19.01 19.117a0.62124 0.62124 0 0 0 1.0586-0.43735v-118.26a0.55166 0.55166 0 0 0 0-0.01v-39.642a0.35535 0.35535 0 0 0-0.0199-0.0174 0.62124 0.62124 0 0 0-0.16401-0.42741 0.62124 0.62124 0 0 0-0.43239-0.17146l-5e-3 -5e-3h-5e-3zm1.481 1.2425h35.977l-17.991 18.312zm38.079 0h167.91v18.543h-167.91zm170.02 0h35.972l-17.986 18.312zm-208.96 0.8921 17.335 17.651h-17.335zm37.697 0v17.651h-17.338zm170.4 0 17.338 17.651h-17.338zm37.697 5e-3v17.646h-17.333zm-245.79 18.888h17.4l-17.4 17.718zm20.297 0h17.4v17.718zm187.8 0h17.4l-17.4 17.718zm20.302 0h17.395v17.71zm-209.55 0.29819 17.991 18.314h-35.982zm208.09 0 17.986 18.314h-35.977zm-165.14 14.497c-0.41748 0.18886-0.72313 0.59391-0.91198 1.1306-0.29323 0.83247-0.0746 1.6898 0.14909 2.3781 0.22365 0.68585 0.49948 1.2176 0.49948 1.2176a2.0948 2.0948 0 0 0 0.0149 0.0248l38.929 66.905-62.559 54.594h-48.404a0.62124 0.62124 0 0 0-0.62124 0.62124v29.792c0 0.34292 0.27831 0.62124 0.62124 0.62124h45.589v9.5348c0 0.34541 0.27832 0.62124 0.62124 0.62124h174.32a0.62124 0.62124 0 0 0 0.62124-0.62124v-9.5348h45.589a0.62124 0.62124 0 0 0 0.62124-0.62124v-29.792a0.62124 0.62124 0 0 0-0.62124-0.62124h-48.404l-62.554-54.594 38.927-66.905a0.4125 0.4125 0 0 0 0.01-0.0248s0.2808-0.53178 0.50444-1.2176c0.22365-0.68833 0.44232-1.5456 0.1491-2.3781-0.18886-0.53674-0.49947-0.94427-0.91695-1.1306a1.5009 1.5009 0 0 0-1.1605 0 2.8527 2.8527 0 0 0-1.0337 0.70821l0.0447-0.0447-58.941 51.439-58.936-51.439 0.0447 0.0447s-0.40256-0.46716-1.0337-0.70821a1.5009 1.5009 0 0 0-1.1605 0zm0.50941 1.1306c0.0298-0.0149 0.0845-0.0199 0.20874 0.0273 0.24849 0.0969 0.57154 0.3976 0.57154 0.3976l0.0447 0.0447 58.809 51.319-20.511 17.902-38.793-66.671s-0.23607-0.44728-0.42245-1.0263c-0.18637-0.57651-0.27334-1.2648-0.16152-1.5804 0.11928-0.34044 0.22365-0.40007 0.25347-0.41251zm121.16 0c0.0298 0.0124 0.13419 0.0745 0.25099 0.41251 0.11183 0.31559 0.0273 1.0039-0.15904 1.5804-0.1814 0.56409-0.39759 0.98156-0.40753 1.0014l-38.808 66.701-20.511-17.907 58.809-51.319a0.62124 0.62124 0 0 0 0.0497-0.0423s0.32056-0.30317 0.57154-0.39759c0.12425-0.0497 0.17395-0.0447 0.20376-0.0298zm-182.62 3.9312h35.982l-17.991 18.404zm208.1 0h35.982l-17.991 18.404zm-171.26 0.89707v36.79l-17.981-18.396zm170.4 0 17.981 18.394-17.981 18.396zm-208.09 5e-3 17.976 18.389-17.976 18.389zm245.79 0v36.777l-17.976-18.389zm-226.95 19.278 17.996 18.409h-35.987zm208.1 0 17.996 18.409h-35.992zm-226.07 19.651h35.95l-17.976 18.128zm208.1 0h35.952l-17.976 18.133zm-0.8747 0.88464 17.251 17.395h-17.251zm-208.09 5e-3 17.246 17.39h-17.246zm37.697 0v17.39h-17.246zm208.09 0v17.39h-17.246zm-122.89 7.9645 20.816 18.165-20.816 35.781-20.821-35.781zm-122.9 10.668h17.469l-17.469 17.618zm20.228 0h17.469v17.618zm187.87 0h17.472l-17.469 17.621zm20.228 0h17.469v17.618zm-209.48 0.37274 18.597 18.754-18.597 18.699-18.595-18.699zm208.1 0 18.592 18.754-18.592 18.699-18.592-18.699zm-125.82 7.9593 21.055 36.181-10.081 17.323h-72.282zm43.546 0 61.309 53.504h-72.282l-10.081-17.32zm63.423 12.293 17.638 17.74h-17.638zm-208.09 5e-3 17.633 17.735h-17.633zm37.697 0v17.735h-17.633zm208.09 0v17.735h-17.633zm-245.79 18.978h17.079l-17.079 17.176zm20.618 0h17.079v17.176zm187.48 0h17.079l-17.079 17.181zm20.623 0h17.074v17.176zm-105.82 6.1378 9.3583 16.09h-18.722zm-132.75 17.332h265.5v28.55h-44.97v-9.3086a0.62124 0.62124 0 0 0-0.62123-0.62124h-174.32a0.62124 0.62124 0 0 0-0.62124 0.62124v9.3086h-44.968zm46.21 19.862h173.08v18.846h-173.08v-9.5372z"/>
 </g>
</svg>
